<svg width="219" height="160" viewBox="0 0 219 160" fill="none" xmlns="http://www.w3.org/2000/svg">
<path d="M133.655 46.544H123.488V50.84H133.655V46.544Z" fill="#EBEBEB"/>
<path d="M127.983 51.962H117.816V56.258H127.983V51.962Z" fill="#EBEBEB"/>
<path d="M139.326 51.962H129.159V56.258H139.326V51.962Z" fill="#EBEBEB"/>
<path d="M175.827 87.245H165.66V91.541H175.827V87.245Z" fill="#EBEBEB"/>
<path d="M175.827 5.832H165.66V10.128H175.827V5.832Z" fill="#EBEBEB"/>
<path d="M181.499 11.249H171.332V15.545H181.499V11.249Z" fill="#EBEBEB"/>
<path d="M165.185 31.669H97.024V34.658H165.185V31.669Z" fill="#EBEBEB"/>
<path d="M103.835 34.659H100.845V44.545H103.835V34.659Z" fill="#EBEBEB"/>
<path d="M103.835 34.659H100.845V37.715H103.835V34.659Z" fill="#DBDBDB"/>
<path d="M161.366 34.659H158.376V44.545H161.366V34.659Z" fill="#EBEBEB"/>
<path d="M161.366 34.659H158.376V37.715H161.366V34.659Z" fill="#DBDBDB"/>
<path d="M114.544 31.67V12.62H109.747V31.67H114.544Z" fill="#C7C7C7"/>
<path d="M114.544 13.694V11.601H109.747V13.694H114.544Z" fill="#DBDBDB"/>
<path d="M114.544 17.154V16.377H109.747V17.154H114.544Z" fill="#DBDBDB"/>
<path d="M115.142 29.171V27.078H109.747V29.171H115.142Z" fill="#DBDBDB"/>
<path d="M117.897 31.67V9.448H114.544V31.67H117.897Z" fill="#DBDBDB"/>
<path d="M117.212 20.084V11.537H115.2V20.084H117.212Z" fill="#EBEBEB"/>
<path d="M141.75 29.2895L125.945 13.668L123.588 16.0527L139.393 31.6742L141.75 29.2895Z" fill="#C7C7C7"/>
<path d="M137.575 26.0925L131.498 20.084L130.084 21.5145L136.161 27.5231L137.575 26.0925Z" fill="#DBDBDB"/>
<path d="M123.589 31.673V14.794H117.895V31.673H123.589Z" fill="#A6A6A6"/>
<path d="M123.589 29.884V28.311H117.895V29.884H123.589Z" fill="#C7C7C7"/>
<path d="M123.589 27.278V26.668H117.895V27.278H123.589Z" fill="#C7C7C7"/>
<path d="M109.747 31.674V15.811H105.814V31.674H109.747Z" fill="#A6A6A6"/>
<path d="M109.747 29.992V28.514H105.814V29.992H109.747Z" fill="#C7C7C7"/>
<path d="M109.747 20.559V19.081H105.814V20.559H109.747Z" fill="#C7C7C7"/>
<path d="M109.747 22.145V21.572H105.814V22.145H109.747Z" fill="#C7C7C7"/>
<path d="M158.019 24.278L157.59 25.41L157.329 26.1L156.9 27.236L155.225 31.672H146.168L144.489 27.236L144.06 26.1L143.799 25.41L143.37 24.278L146.712 19.412L144.98 16.201H156.418L154.678 19.412L158.019 24.278Z" fill="#DBDBDB"/>
<path d="M158.019 24.278L157.59 25.41H143.799L143.37 24.278H158.019Z" fill="#A6A6A6"/>
<path d="M157.324 26.099L156.895 27.235H144.489L144.06 26.099H157.324Z" fill="#A6A6A6"/>
<path d="M78.4 0H27.328V78.31H78.4V0Z" fill="#EBEBEB"/>
<path d="M51.677 3.137H30.111V37.969H51.677V3.137Z" fill="white"/>
<path d="M75.6159 3.137H54.0499V37.969H75.6159V3.137Z" fill="white"/>
<path d="M51.677 40.342H30.111V75.174H51.677V40.342Z" fill="white"/>
<path d="M75.6159 40.342H54.0499V75.174H75.6159V40.342Z" fill="white"/>
<path d="M39.424 0H27.328V112.036H39.424V0Z" fill="#DBDBDB"/>
<path d="M37.131 5.327L37.224 17.441L37.258 29.554L37.322 53.781L37.258 78.008L37.224 90.122L37.13 102.236L37.036 90.122L37.001 78.009L36.937 53.782L37.001 29.554L37.035 17.44L37.131 5.327Z" fill="#EBEBEB"/>
<path d="M31.576 8.136L31.669 18.952L31.723 29.768L31.768 51.401L31.724 73.034L31.67 83.847L31.576 94.663L31.482 83.847L31.428 73.031L31.384 51.398L31.429 29.765L31.483 18.949L31.576 8.136Z" fill="#EBEBEB"/>
<path d="M34.357 10.689L34.45 23.354L34.484 36.019L34.548 61.349L34.484 86.68L34.448 99.349L34.357 112.011L34.257 99.349L34.223 86.684L34.162 61.349L34.226 36.019L34.257 23.354L34.357 10.689Z" fill="#EBEBEB"/>
<path d="M29.511 5.965L29.604 19.221L29.638 32.477L29.702 58.989L29.638 85.501L29.604 98.757L29.51 112.013L29.416 98.757L29.382 85.501L29.318 58.989L29.382 32.477L29.416 19.221L29.511 5.965Z" fill="#EBEBEB"/>
<path d="M66.3029 112.036H78.3989L78.3989 0H66.3029L66.3029 112.036Z" fill="#DBDBDB"/>
<path d="M68.5969 5.327L68.6899 17.441L68.7239 29.554L68.7879 53.781L68.7239 78.008L68.6899 90.122L68.5959 102.236L68.5019 90.122L68.4679 78.008L68.4039 53.781L68.4679 29.554L68.5019 17.44L68.5969 5.327Z" fill="#EBEBEB"/>
<path d="M74.151 8.136L74.244 18.952L74.298 29.768L74.343 51.401L74.299 73.034L74.245 83.85L74.151 94.666L74.057 83.85L74.002 73.035L73.958 51.402L74.002 29.769L74.056 18.953L74.151 8.136Z" fill="#EBEBEB"/>
<path d="M71.374 10.689L71.467 23.354L71.501 36.019L71.565 61.349L71.501 86.68L71.468 99.349L71.374 112.014L71.28 99.349L71.246 86.684L71.182 61.353L71.246 36.023L71.28 23.358L71.374 10.689Z" fill="#EBEBEB"/>
<path d="M76.2169 5.965L76.3099 19.221L76.3439 32.477L76.4079 58.989L76.3439 85.501L76.3099 98.757L76.2159 112.013L76.1219 98.757L76.0879 85.501L76.0239 58.989L76.0879 32.477L76.1219 19.221L76.2169 5.965Z" fill="#EBEBEB"/>
<path d="M1 112.122H217.739" stroke="#263238" stroke-linecap="round" stroke-linejoin="round"/>
<path d="M107.266 152.355C158.467 152.355 199.974 147.187 199.974 140.813C199.974 134.439 158.467 129.271 107.266 129.271C56.0648 129.271 14.558 134.439 14.558 140.813C14.558 147.187 56.0648 152.355 107.266 152.355Z" fill="#EBEBEB"/>
<path d="M154.684 119.461H63.684L92.257 52.772H183.257L154.684 119.461Z" fill="#263238"/>
<path d="M92.93 54.194H182.647L154.684 119.461H65.307L92.93 54.194Z" fill="#EBEBEB"/>
<path d="M92.93 54.194C93.2942 60.4819 92.5733 66.7856 90.799 72.829C87.871 82.406 73.364 101.583 70.542 114.518L65.307 119.46H154.684L182.647 54.193L92.93 54.194Z" fill="#DBDBDB"/>
<path d="M92.9301 54.194C92.8471 55.161 91.9041 67.969 88.1531 76.243C83.9711 85.468 73.8811 100.228 70.1431 113.757" stroke="#DBDBDB" stroke-miterlimit="10"/>
<path d="M92.016 58.067C91.0245 64.7544 89.0396 71.2561 86.127 77.357C81.327 87.344 73.06 99.915 69.212 115.779" stroke="#DBDBDB" stroke-miterlimit="10"/>
<path d="M121.32 123.161H208.71L179.13 54.194H92.93C92.93 54.194 92.591 64.635 98.31 79.743C103.697 93.976 113.662 102.532 121.32 123.161Z" fill="white"/>
<path d="M120.807 123.161C113.5 104.986 102.849 95.439 97.3709 82.303C93.1209 72.111 92.9299 54.194 92.9299 54.194" stroke="white" stroke-width="2" stroke-miterlimit="10"/>
<path d="M93.786 56.185C93.786 56.185 95.856 72.914 103.612 86.827C111.368 100.74 115.184 105.946 119.212 115.464" stroke="#EBEBEB" stroke-miterlimit="10"/>
<path d="M123.12 124.583H214.12L183.32 52.771H92.3199L123.12 124.583Z" fill="#346AE1"/>
<path d="M181.855 124.583H201.876L171.076 52.771H151.055L181.855 124.583Z" fill="#2B62D9"/>
<path d="M132.583 124.583H139.833L109.033 52.771H101.783L132.583 124.583Z" fill="#2B62D9"/>
<path d="M92.9299 54.194H183.93L184.896 51.918H91.3109L92.9299 54.194Z" fill="#2B62D9"/>
<path d="M52.782 148.23L17.975 139.065L1.78198 147.745L35.829 159.091L52.782 148.23Z" fill="#8DA8DF"/>
<path d="M50.623 148.073L35.101 158.051L3.19202 147.443L18.848 139.128C18.848 139.128 28.397 140.385 28.842 140.528C29.287 140.671 33.498 142.415 33.498 142.415C33.498 142.415 39.406 143.443 39.807 143.577C40.208 143.711 50.623 148.073 50.623 148.073Z" fill="white"/>
<path d="M33.498 142.41C32.2753 143.289 31.0457 144.158 29.809 145.016L26.086 147.573L22.334 150.086C21.0793 150.919 19.817 151.739 18.547 152.548C19.769 151.669 20.9987 150.8 22.236 149.942L25.959 147.386L29.712 144.874C30.966 144.041 32.228 143.219 33.498 142.41Z" fill="#DBDBDB"/>
<path d="M47.205 147.981C46.0717 147.536 44.9423 147.082 43.817 146.617L40.447 145.217L39.606 144.864C39.466 144.808 39.323 144.747 39.189 144.701C39.055 144.655 38.895 144.63 38.748 144.594L36.973 144.177C35.791 143.895 34.611 143.599 33.433 143.289C34.6297 143.516 35.8243 143.755 37.017 144.008L38.804 144.395C38.953 144.43 39.104 144.455 39.251 144.495C39.398 144.535 39.543 144.604 39.687 144.66L40.533 145.004C41.653 145.484 42.772 145.961 43.884 146.458C44.996 146.955 46.104 147.46 47.205 147.981Z" fill="#DBDBDB"/>
<path d="M46.124 148.619C44.9907 148.174 43.8614 147.72 42.736 147.255L39.366 145.855L38.525 145.502C38.385 145.446 38.242 145.385 38.109 145.339C37.976 145.293 37.814 145.268 37.668 145.232L35.893 144.815C34.711 144.533 33.531 144.237 32.353 143.927C33.5497 144.154 34.7444 144.393 35.937 144.646L37.724 145.033C37.873 145.068 38.024 145.093 38.171 145.133C38.318 145.173 38.463 145.242 38.607 145.298L39.453 145.643C40.573 146.122 41.692 146.6 42.804 147.096C43.916 147.592 45.023 148.098 46.124 148.619Z" fill="#DBDBDB"/>
<path d="M45.042 149.257C43.934 148.822 42.83 148.378 41.73 147.924L38.436 146.552L37.615 146.207C37.3496 146.084 37.0743 145.984 36.792 145.907L35.059 145.492C33.9017 145.216 32.7467 144.929 31.594 144.632C32.7647 144.846 33.9313 145.075 35.094 145.32C35.678 145.438 36.257 145.571 36.839 145.706C37.1321 145.782 37.4185 145.883 37.695 146.006L38.521 146.345C39.614 146.815 40.709 147.281 41.795 147.767C42.881 148.253 43.964 148.747 45.042 149.257Z" fill="#DBDBDB"/>
<path d="M43.961 149.893C42.869 149.464 41.781 149.027 40.697 148.58L37.451 147.227C36.912 147.01 36.368 146.752 35.834 146.574L34.128 146.163C32.988 145.889 31.85 145.605 30.714 145.312C31.8687 145.521 33.0197 145.747 34.167 145.988C34.742 146.107 35.312 146.235 35.887 146.372C36.467 146.56 36.987 146.797 37.537 147.02C38.614 147.484 39.694 147.942 40.763 148.42C41.832 148.898 42.9 149.392 43.961 149.893Z" fill="#DBDBDB"/>
<path d="M42.879 150.532C41.791 150.105 40.7067 149.668 39.626 149.223L36.391 147.875C35.854 147.657 35.311 147.405 34.781 147.221C34.223 147.075 33.648 146.951 33.081 146.81C31.9477 146.537 30.8144 146.254 29.681 145.961C30.8317 146.168 31.979 146.393 33.123 146.634C33.696 146.754 34.263 146.88 34.838 147.018C35.413 147.213 35.938 147.444 36.48 147.668C37.553 148.13 38.629 148.587 39.695 149.068C40.761 149.549 41.822 150.032 42.879 150.532Z" fill="#DBDBDB"/>
<path d="M41.798 151.168C40.7133 150.742 39.6326 150.309 38.556 149.868L35.331 148.524C34.796 148.306 34.254 148.058 33.731 147.868C33.176 147.722 32.602 147.597 32.038 147.458C30.9046 147.185 29.7743 146.903 28.647 146.611C29.7936 146.818 30.9373 147.041 32.078 147.281C32.649 147.401 33.214 147.525 33.788 147.665C34.358 147.865 34.881 148.092 35.422 148.317C36.492 148.779 37.565 149.233 38.627 149.711C39.689 150.189 40.745 150.669 41.798 151.168Z" fill="#DBDBDB"/>
<path d="M40.7161 151.806C39.6451 151.385 38.5771 150.959 37.5161 150.519L34.3341 149.193C33.8041 148.978 33.2731 148.738 32.7481 148.538C32.2161 148.377 31.6391 148.263 31.0861 148.124C29.9691 147.853 28.8531 147.577 27.7411 147.285C28.8744 147.485 30.0031 147.705 31.1271 147.944C31.6921 148.069 32.2461 148.175 32.8161 148.338C33.3661 148.544 33.8901 148.762 34.4211 148.988C35.4771 149.444 36.5361 149.888 37.5831 150.365C38.6301 150.842 39.6761 151.314 40.7161 151.806Z" fill="#DBDBDB"/>
<path d="M39.6351 152.443C38.5641 152.022 37.4961 151.596 36.4351 151.156L33.2521 149.833C32.7221 149.618 32.1911 149.378 31.6661 149.178C31.1331 149.017 30.5571 148.903 30.0041 148.764C28.8871 148.493 27.7711 148.217 26.6581 147.925C27.7914 148.125 28.9201 148.345 30.0441 148.584C30.6091 148.709 31.1631 148.815 31.7331 148.977C32.2841 149.183 32.8071 149.401 33.3391 149.627C34.3951 150.083 35.4531 150.527 36.5011 151.004C37.5491 151.481 38.5951 151.951 39.6351 152.443Z" fill="#DBDBDB"/>
<path d="M38.736 153.175C37.651 152.745 36.568 152.31 35.491 151.861L32.264 150.509L30.653 149.836C30.124 149.66 29.532 149.552 28.972 149.409C27.838 149.134 26.705 148.854 25.572 148.558C26.7214 148.763 27.867 148.986 29.009 149.227C29.582 149.359 30.144 149.455 30.724 149.638C31.273 149.852 31.811 150.072 32.347 150.304C33.417 150.769 34.491 151.225 35.554 151.704C36.617 152.183 37.682 152.675 38.736 153.175Z" fill="#DBDBDB"/>
<path d="M37.6531 153.836C36.5711 153.404 35.4921 152.968 34.4191 152.517L31.2021 151.16L29.5961 150.484C29.0721 150.302 28.4791 150.198 27.9211 150.054C26.7901 149.779 25.6601 149.5 24.5331 149.204C25.6797 149.408 26.8227 149.631 27.9621 149.872C28.5331 150.006 29.0941 150.096 29.6731 150.286C30.2171 150.502 30.7551 150.721 31.2891 150.955C32.3561 151.422 33.4271 151.879 34.4891 152.363C35.5511 152.847 36.6021 153.334 37.6531 153.836Z" fill="#DBDBDB"/>
<path d="M36.5661 154.549C35.5191 154.12 34.4721 153.688 33.4331 153.241C32.3941 152.794 31.3571 152.341 30.3161 151.896L28.7601 151.224C28.5081 151.107 28.2437 151.019 27.9721 150.961L27.1481 150.761C26.0481 150.492 24.9481 150.22 23.8561 149.928C24.9714 150.123 26.0831 150.338 27.1911 150.573L28.0201 150.759C28.1581 150.793 28.2961 150.82 28.4381 150.865C28.5801 150.91 28.7101 150.965 28.8381 151.022C29.3634 151.238 29.8841 151.461 30.4001 151.691C31.4331 152.154 32.4711 152.606 33.5001 153.091C34.5291 153.576 35.5481 154.053 36.5661 154.549Z" fill="#DBDBDB"/>
<path d="M35.4881 155.139C34.4221 154.751 33.3581 154.36 32.3001 153.953C31.2421 153.546 30.1861 153.132 29.1281 152.728C28.6001 152.528 28.0681 152.308 27.5471 152.128L25.9161 151.648C24.8321 151.317 23.7491 150.978 22.6731 150.619C23.7731 150.885 24.8731 151.171 25.9731 151.465L27.6111 151.922C28.1651 152.104 28.6831 152.314 29.2111 152.522C30.2631 152.945 31.3191 153.357 32.3631 153.8C33.4071 154.243 34.4491 154.685 35.4881 155.139Z" fill="#DBDBDB"/>
<path d="M19.856 149.974C18.842 149.621 17.841 149.237 16.846 148.842L16.097 148.556C15.8514 148.458 15.5991 148.378 15.342 148.316L13.791 147.891L10.691 147.022C9.65803 146.733 8.63203 146.422 7.60303 146.122C8.64403 146.38 9.68803 146.622 10.725 146.895L13.838 147.695L15.392 148.107C15.6565 148.17 15.917 148.248 16.172 148.342C16.425 148.435 16.672 148.542 16.921 148.642C17.9177 149.049 18.896 149.493 19.856 149.974Z" fill="#DBDBDB"/>
<path d="M20.906 149.152C19.906 148.86 18.917 148.545 17.939 148.208C17.447 148.048 16.956 147.868 16.468 147.726L14.968 147.303L11.977 146.439C10.977 146.154 9.989 145.839 8.995 145.539C10 145.795 11.01 146.039 12.012 146.306L15.02 147.106C16.0304 147.354 17.0271 147.654 18.006 148.006C18.986 148.356 19.951 148.741 20.906 149.152Z" fill="#DBDBDB"/>
<path d="M21.918 148.421C20.928 148.132 19.944 147.821 18.97 147.491L17.509 147.005L16.014 146.627L13.022 145.858C12.022 145.603 11.032 145.322 10.037 145.058C11.043 145.282 12.052 145.492 13.055 145.729L16.065 146.435L17.565 146.801C18.065 146.948 18.545 147.13 19.033 147.301C20.006 147.639 20.968 148.02 21.918 148.421Z" fill="#DBDBDB"/>
<path d="M22.784 147.88C21.804 147.536 20.853 147.123 19.895 146.741C19.6635 146.638 19.4232 146.555 19.177 146.495L18.42 146.324L16.904 145.988C14.8827 145.536 12.8643 145.069 10.849 144.588C12.8857 144.97 14.919 145.372 16.949 145.794L18.469 146.118L19.229 146.283C19.4877 146.34 19.74 146.423 19.982 146.53C20.9393 146.93 21.8746 147.381 22.784 147.88Z" fill="#DBDBDB"/>
<path d="M23.733 147.221C22.753 146.876 21.802 146.463 20.844 146.082C20.6125 145.979 20.3722 145.897 20.126 145.837L19.369 145.665L17.853 145.333C15.8316 144.881 13.8133 144.414 11.798 143.933C13.8346 144.315 15.868 144.717 17.898 145.139L19.418 145.463L20.178 145.629C20.4366 145.686 20.6889 145.769 20.931 145.876C21.8881 146.274 22.8234 146.723 23.733 147.221Z" fill="#DBDBDB"/>
<path d="M24.681 146.561C23.701 146.217 22.75 145.803 21.792 145.422C21.5604 145.319 21.3202 145.237 21.074 145.176L20.317 145.005L18.801 144.67C16.7797 144.217 14.761 143.751 12.745 143.27C14.7817 143.652 16.815 144.054 18.845 144.476L20.365 144.8L21.125 144.965C21.3837 145.022 21.6359 145.105 21.878 145.212C22.8357 145.611 23.7714 146.062 24.681 146.561Z" fill="#DBDBDB"/>
<path d="M25.6301 145.901C24.6501 145.556 23.6991 145.143 22.7411 144.762C22.5095 144.659 22.2692 144.577 22.0231 144.517L21.2661 144.346L19.7491 144.01C17.7284 143.558 15.7101 143.091 13.6941 142.61C15.7308 142.992 17.7641 143.394 19.7941 143.816L21.3141 144.139L22.0741 144.305C22.3327 144.362 22.585 144.445 22.8271 144.552C23.7847 144.952 24.7204 145.402 25.6301 145.901Z" fill="#DBDBDB"/>
<path d="M26.854 145.371C25.874 145.027 24.924 144.613 23.965 144.232C23.7338 144.129 23.4938 144.047 23.248 143.987L22.491 143.816L20.975 143.48C18.9544 143.028 16.936 142.561 14.92 142.08C16.9567 142.462 18.99 142.864 21.02 143.286L22.539 143.609L23.299 143.775C23.5577 143.832 23.81 143.915 24.052 144.022C25.0094 144.421 25.9447 144.872 26.854 145.371Z" fill="#DBDBDB"/>
<path d="M28.045 144.847C27.065 144.503 26.114 144.09 25.156 143.708C24.9245 143.605 24.6842 143.523 24.438 143.462L23.681 143.291L22.165 142.956C20.1437 142.503 18.125 142.037 16.109 141.556C18.1457 141.938 20.179 142.34 22.209 142.762L23.729 143.086L24.489 143.251C24.7477 143.308 25 143.391 25.242 143.498C26.1997 143.898 27.1353 144.348 28.045 144.847Z" fill="#DBDBDB"/>
<path d="M28.994 144.187C28.016 143.843 27.067 143.43 26.109 143.05C25.8787 142.947 25.6393 142.866 25.394 142.807L24.637 142.648L23.118 142.339C21.0926 141.924 19.0693 141.496 17.048 141.055C19.0873 141.398 21.123 141.762 23.155 142.147L24.678 142.447L25.44 142.6C25.699 142.655 25.9514 142.738 26.193 142.846C27.1498 143.243 28.0848 143.691 28.994 144.187Z" fill="#DBDBDB"/>
<path d="M29.944 143.527C28.967 143.183 28.019 142.772 27.064 142.392C26.8347 142.289 26.5959 142.208 26.351 142.15L25.593 142.004L24.07 141.725C22.04 141.351 20.0113 140.966 17.984 140.57C20.028 140.869 22.068 141.19 24.104 141.533L25.63 141.799L26.393 141.939C26.6526 141.993 26.9055 142.075 27.147 142.184C28.1024 142.582 29.0361 143.03 29.944 143.527Z" fill="#DBDBDB"/>
<path d="M30.892 142.868C29.917 142.525 28.971 142.115 28.017 141.735C27.7895 141.631 27.5519 141.551 27.308 141.496L26.548 141.372L25.02 141.143C22.983 140.837 20.946 140.527 18.911 140.198C20.9597 140.425 23.0053 140.675 25.048 140.95L26.579 141.166L27.346 141.285C27.6063 141.336 27.8598 141.418 28.101 141.528C29.0544 141.925 29.986 142.372 30.892 142.868Z" fill="#DBDBDB"/>
<path d="M34.386 156.057C33.298 155.696 32.212 155.33 31.131 154.948L27.894 153.794C27.355 153.607 26.815 153.394 26.282 153.217L24.643 152.698C23.552 152.343 22.465 151.979 21.384 151.598C22.493 151.891 23.596 152.198 24.695 152.52L26.341 153.013C26.895 153.197 27.43 153.385 27.969 153.585C29.043 153.985 30.121 154.374 31.189 154.79C32.257 155.206 33.325 155.625 34.386 156.057Z" fill="#DBDBDB"/>
<path d="M19.075 150.778C17.975 150.439 16.875 150.095 15.786 149.736L12.513 148.649L10.884 148.105L9.22903 147.62C8.12903 147.288 7.02904 146.946 5.93604 146.586C7.05504 146.856 8.16803 147.144 9.27703 147.441L10.939 147.901C11.499 148.073 12.039 148.25 12.584 148.439C13.67 148.817 14.759 149.184 15.839 149.578C16.919 149.972 18.001 150.367 19.075 150.778Z" fill="#DBDBDB"/>
<path d="M187.842 88.257C186.908 87.585 157.1 78.336 155.742 78.702C155.594 78.744 155.28 80.084 153.934 83.411C153.869 83.569 139.686 100.763 139.686 100.763L159.097 111.008L170.175 95.389C170.175 95.389 184.032 92.761 185.483 92.202C186.934 91.643 188.776 88.928 187.842 88.257Z" fill="#FFC3BD"/>
<path d="M187.842 88.257C186.908 87.585 157.1 78.336 155.742 78.702C155.594 78.744 155.28 80.084 153.934 83.411C153.869 83.569 151.928 85.821 150.976 87.048C152.211 88.109 164.121 96.517 167.393 99.311L170.176 95.388C170.176 95.388 184.033 92.76 185.484 92.201C186.935 91.642 188.776 88.928 187.842 88.257Z" fill="#FFC727"/>
<path d="M161.42 81.599C161.268 81.9374 161.076 82.2561 160.847 82.548C160.395 83.1374 159.81 83.6114 159.14 83.931C158.459 84.2482 157.709 84.3859 156.96 84.331C156.219 84.2575 155.501 84.0286 154.854 83.659C154.818 83.64 154.854 83.584 154.888 83.604C155.532 83.916 156.241 84.0719 156.957 84.0591C157.673 84.0462 158.375 83.865 159.008 83.53C159.61 83.2151 160.133 82.7671 160.536 82.22C160.732 81.9526 160.899 81.6658 161.036 81.364C161.104 81.2136 161.162 81.0593 161.212 80.902C161.263 80.742 161.276 80.608 161.43 80.518C161.467 80.4988 161.51 80.4945 161.549 80.506C161.589 80.5176 161.623 80.5441 161.644 80.58C161.809 80.835 161.53 81.351 161.42 81.599Z" fill="white"/>
<path d="M181.567 93.098C180.912 92.8521 180.349 92.4091 179.956 91.83C179.519 91.2439 179.156 90.6057 178.877 89.93C178.596 89.2672 178.4 88.5717 178.292 87.86C178.24 87.5134 178.209 87.1642 178.197 86.814C178.164 86.4576 178.185 86.0982 178.259 85.748C178.263 85.7349 178.271 85.7234 178.282 85.7152C178.292 85.707 178.306 85.7026 178.319 85.7026C178.333 85.7026 178.346 85.707 178.357 85.7152C178.368 85.7234 178.376 85.7349 178.38 85.748C178.425 86.0599 178.454 86.374 178.466 86.689C178.503 87.0379 178.558 87.3847 178.631 87.728C178.771 88.3966 178.972 89.051 179.231 89.683C179.704 90.9611 180.56 92.062 181.682 92.835C181.71 92.8542 181.731 92.8826 181.74 92.9153C181.75 92.948 181.747 92.9831 181.734 93.0143C181.72 93.0455 181.696 93.071 181.665 93.0863C181.635 93.1016 181.6 93.1057 181.567 93.098Z" fill="white"/>
<path d="M167.404 95.7C163.78 93.084 160.173 90.443 156.523 87.864C155.489 87.133 154.461 86.39 153.415 85.676C153.38 85.652 153.42 85.604 153.455 85.626C157.291 87.932 161.001 90.4436 164.566 93.15C165.571 93.926 166.548 94.739 167.52 95.556C167.539 95.5714 167.551 95.5937 167.554 95.6181C167.556 95.6425 167.549 95.6669 167.534 95.686C167.518 95.7051 167.496 95.7173 167.472 95.7199C167.447 95.7226 167.423 95.7154 167.404 95.7Z" fill="white"/>
<path d="M153.753 86.261C153.74 86.2885 153.722 86.313 153.699 86.333C153.673 86.353 153.644 86.371 153.617 86.39L153.461 86.49C153.35 86.564 153.238 86.634 153.122 86.7C152.897 86.828 152.667 86.945 152.434 87.058C152.401 87.074 152.371 87.022 152.403 87.003C152.621 86.868 152.835 86.726 153.046 86.58C153.146 86.509 153.252 86.439 153.356 86.369L153.52 86.256C153.568 86.2145 153.625 86.185 153.687 86.17C153.698 86.1682 153.71 86.1695 153.721 86.174C153.732 86.1784 153.741 86.1858 153.748 86.1952C153.755 86.2047 153.759 86.2158 153.76 86.2274C153.761 86.239 153.758 86.2507 153.753 86.261Z" fill="white"/>
<path d="M155.445 87.508C155.432 87.5354 155.414 87.56 155.391 87.58C155.365 87.6 155.337 87.618 155.309 87.637L155.153 87.737C155.042 87.811 154.93 87.881 154.814 87.947C154.589 88.075 154.359 88.192 154.126 88.305C154.094 88.321 154.063 88.269 154.095 88.25C154.313 88.115 154.527 87.972 154.738 87.827C154.838 87.756 154.945 87.686 155.048 87.616L155.211 87.503C155.259 87.4615 155.316 87.432 155.378 87.417C155.389 87.4149 155.401 87.4162 155.412 87.4205C155.423 87.4249 155.433 87.4322 155.44 87.4417C155.447 87.4512 155.451 87.4624 155.452 87.4741C155.453 87.4858 155.45 87.4976 155.445 87.508Z" fill="white"/>
<path d="M157.135 88.755C157.122 88.7824 157.104 88.8069 157.081 88.827C157.055 88.847 157.027 88.865 156.999 88.884L156.843 88.984C156.732 89.058 156.62 89.128 156.504 89.194C156.279 89.322 156.049 89.439 155.816 89.552C155.783 89.568 155.753 89.516 155.785 89.497C156.003 89.362 156.217 89.219 156.427 89.073L156.737 88.862L156.901 88.749C156.949 88.7075 157.006 88.678 157.068 88.663C157.08 88.6608 157.092 88.662 157.103 88.6664C157.114 88.6707 157.124 88.6782 157.131 88.6878C157.138 88.6975 157.142 88.7089 157.143 88.7208C157.143 88.7327 157.141 88.7445 157.135 88.755Z" fill="white"/>
<path d="M158.825 90.001C158.812 90.0285 158.794 90.053 158.771 90.073C158.745 90.093 158.717 90.111 158.689 90.13L158.533 90.23C158.422 90.304 158.311 90.374 158.195 90.44C157.969 90.568 157.739 90.685 157.507 90.798C157.474 90.814 157.444 90.762 157.476 90.742C157.694 90.608 157.908 90.465 158.119 90.319C158.219 90.248 158.326 90.179 158.429 90.108L158.592 89.995C158.64 89.9537 158.697 89.9243 158.759 89.909C158.771 89.907 158.783 89.9084 158.793 89.9129C158.804 89.9174 158.814 89.9248 158.821 89.9344C158.828 89.944 158.832 89.9553 158.832 89.9671C158.833 89.9789 158.831 89.9906 158.825 90.001Z" fill="white"/>
<path d="M160.517 91.248C160.504 91.2754 160.486 91.2999 160.463 91.32C160.437 91.34 160.409 91.358 160.381 91.377L160.225 91.477C160.114 91.551 160.002 91.621 159.886 91.687C159.661 91.815 159.431 91.932 159.197 92.045C159.165 92.061 159.135 92.009 159.166 91.989C159.385 91.855 159.598 91.712 159.809 91.566C159.909 91.495 160.016 91.426 160.119 91.355L160.282 91.242C160.33 91.2009 160.387 91.1714 160.449 91.156C160.461 91.1536 160.473 91.1546 160.484 91.1589C160.495 91.1632 160.505 91.1706 160.512 91.1803C160.52 91.1899 160.524 91.2014 160.525 91.2135C160.525 91.2255 160.523 91.2375 160.517 91.248Z" fill="white"/>
<path d="M162.207 92.495C162.194 92.5224 162.176 92.5468 162.153 92.567C162.127 92.587 162.098 92.605 162.071 92.624L161.915 92.724C161.804 92.797 161.692 92.868 161.576 92.934C161.351 93.062 161.121 93.179 160.888 93.292C160.855 93.307 160.825 93.256 160.857 93.236C161.075 93.102 161.289 92.959 161.499 92.813C161.599 92.742 161.706 92.673 161.809 92.602L161.973 92.489C162.021 92.4478 162.078 92.4183 162.14 92.403C162.152 92.4008 162.164 92.402 162.175 92.4063C162.186 92.4107 162.195 92.4182 162.202 92.4278C162.21 92.4375 162.214 92.4489 162.214 92.4608C162.215 92.4727 162.213 92.4845 162.207 92.495Z" fill="white"/>
<path d="M163.898 93.74C163.885 93.7674 163.867 93.7918 163.844 93.812C163.818 93.832 163.79 93.85 163.762 93.868L163.606 93.968C163.495 94.042 163.383 94.112 163.267 94.178C163.042 94.306 162.812 94.423 162.578 94.536C162.546 94.551 162.515 94.5 162.547 94.48C162.765 94.346 162.979 94.203 163.19 94.057C163.29 93.986 163.397 93.917 163.5 93.846L163.663 93.733C163.711 93.6917 163.769 93.6623 163.831 93.647C163.843 93.6447 163.855 93.6458 163.866 93.6502C163.878 93.6546 163.887 93.6622 163.894 93.672C163.901 93.6818 163.905 93.6934 163.906 93.7055C163.907 93.7175 163.904 93.7295 163.898 93.74Z" fill="white"/>
<path d="M165.589 94.987C165.576 95.0149 165.558 95.0398 165.535 95.06C165.509 95.08 165.481 95.098 165.453 95.116L165.297 95.221C165.186 95.294 165.074 95.365 164.958 95.43C164.733 95.558 164.503 95.675 164.27 95.788C164.237 95.803 164.207 95.752 164.239 95.732C164.457 95.598 164.671 95.455 164.881 95.309C164.981 95.238 165.088 95.169 165.191 95.098L165.354 94.985C165.402 94.9435 165.459 94.914 165.521 94.899C165.532 94.8971 165.544 94.8983 165.554 94.9024C165.565 94.9066 165.574 94.9136 165.581 94.9226C165.588 94.9317 165.593 94.9424 165.594 94.9538C165.595 94.9651 165.594 94.9766 165.589 94.987Z" fill="white"/>
<path d="M167.279 96.239C167.266 96.2663 167.248 96.2908 167.226 96.311C167.2 96.331 167.171 96.349 167.144 96.367L166.988 96.467C166.877 96.541 166.765 96.611 166.649 96.677C166.424 96.805 166.194 96.922 165.961 97.035C165.928 97.051 165.898 96.999 165.93 96.98C166.148 96.846 166.362 96.703 166.573 96.557C166.673 96.486 166.78 96.417 166.883 96.346L167.047 96.233C167.095 96.1915 167.152 96.162 167.214 96.147C167.225 96.1453 167.237 96.1468 167.248 96.1513C167.259 96.1559 167.268 96.1634 167.275 96.173C167.282 96.1825 167.286 96.1938 167.286 96.2054C167.287 96.2171 167.284 96.2287 167.279 96.239Z" fill="white"/>
<path d="M164.813 103.387L147.691 89.913C147.691 89.913 130.112 112.379 129.813 112.531C121.987 112.698 114.186 113.489 106.486 114.896C104.496 115.296 93.8919 110.116 82.0339 120.096L83.8179 138.672C102.467 141.34 128.483 137.325 139.57 133.696C150.039 130.267 164.813 103.387 164.813 103.387Z" fill="#A0BDFF"/>
<path d="M162.416 105.145C158.565 101.962 154.678 98.828 150.631 95.896C149.479 95.061 148.292 94.275 147.159 93.415C147.121 93.386 147.081 93.448 147.118 93.477C148.106 94.247 149.041 95.077 150.011 95.871C150.981 96.665 151.95 97.449 152.93 98.225C154.885 99.772 156.904 101.234 158.913 102.71C160.059 103.553 161.213 104.381 162.374 105.21C162.415 105.236 162.452 105.175 162.416 105.145Z" fill="#455A64"/>
<path d="M149.273 97.405C146.191 101.505 143.094 105.591 140.028 109.705C138.495 111.761 136.958 113.814 135.417 115.865C134.848 116.815 133.972 117.542 132.933 117.924C132.371 118.062 131.8 118.156 131.224 118.207L129.318 118.442C124.257 119.066 119.197 119.699 114.134 120.311C112.872 120.488 111.6 120.582 110.326 120.592C109.054 120.537 107.788 120.382 106.54 120.127C104.273 119.739 101.969 119.617 99.6739 119.763C95.1239 120.113 90.6811 121.321 86.5799 123.322C86.0589 123.569 85.5419 123.822 85.0289 124.087C84.9859 124.109 85.0289 124.171 85.0679 124.151C89.2964 122.082 93.8577 120.776 98.5409 120.296C100.846 120.069 103.17 120.115 105.464 120.433C106.691 120.611 107.903 120.884 109.138 121.001C110.404 121.098 111.677 121.068 112.938 120.912C115.481 120.643 118.018 120.293 120.557 119.98L128.181 119.04C129.445 118.884 130.716 118.753 131.976 118.567C133.006 118.482 133.977 118.052 134.732 117.347C135.497 116.483 136.199 115.565 136.832 114.6C137.606 113.542 138.384 112.487 139.165 111.435C142.207 107.315 145.224 103.177 148.251 99.046L149.388 97.495C149.433 97.424 149.322 97.341 149.273 97.405Z" fill="#455A64"/>
<path d="M139.429 55.816C138.473 56.455 119.366 81.133 119.229 82.531C119.216 82.685 120.362 83.448 123.006 85.875C123.247 86.6942 123.374 87.543 123.383 88.397C123.836 93.819 124.209 106.072 124.209 106.072L144.224 101.149L140.803 80.287L139.915 74.861C139.915 74.861 142.31 60.961 142.295 59.407C142.28 57.853 140.384 55.177 139.429 55.816Z" fill="#FFC3BD"/>
<path d="M139.429 55.816C138.473 56.455 119.366 81.133 119.229 82.531C119.216 82.685 120.362 83.448 123.006 85.875C123.247 86.6942 123.374 87.543 123.383 88.397C126.658 86.817 136.718 82.169 140.803 80.285L139.915 74.859C139.915 74.859 142.31 60.959 142.295 59.405C142.28 57.851 140.384 55.177 139.429 55.816Z" fill="#FFC727"/>
<path d="M123.936 78.231C124.2 78.4919 124.432 78.7841 124.625 79.101C125.02 79.7306 125.26 80.4448 125.325 81.185C125.382 81.9336 125.247 82.6844 124.932 83.366C124.603 84.0347 124.138 84.6265 123.565 85.103C123.534 85.13 123.494 85.079 123.526 85.052C124.044 84.5579 124.438 83.9486 124.677 83.2737C124.916 82.5987 124.992 81.877 124.9 81.167C124.816 80.4926 124.579 79.8462 124.208 79.277C124.026 79.0005 123.816 78.7435 123.581 78.51C123.464 78.3937 123.339 78.2846 123.209 78.183C123.077 78.083 122.956 78.021 122.926 77.844C122.921 77.8028 122.932 77.7611 122.956 77.7278C122.981 77.6944 123.018 77.6719 123.059 77.665C123.356 77.599 123.743 78.041 123.936 78.231Z" fill="white"/>
<path d="M141.764 63.39C141.304 63.9176 140.692 64.2897 140.012 64.455C139.309 64.6589 138.583 64.7744 137.851 64.799C137.132 64.8297 136.411 64.7703 135.707 64.622C135.364 64.5485 135.026 64.4557 134.694 64.344C134.348 64.2497 134.019 64.1041 133.717 63.912C133.706 63.9037 133.698 63.8921 133.694 63.8789C133.691 63.8657 133.691 63.8517 133.696 63.8389C133.701 63.8261 133.71 63.8152 133.722 63.8081C133.734 63.8009 133.747 63.7977 133.761 63.799C134.069 63.8658 134.374 63.949 134.673 64.048C135.013 64.1351 135.357 64.2048 135.704 64.257C136.379 64.3605 137.062 64.4017 137.745 64.38C139.108 64.3862 140.44 63.9702 141.557 63.189C141.687 63.094 141.867 63.258 141.764 63.39Z" fill="white"/>
<path d="M139.48 78.215C135.456 80.16 131.418 82.077 127.413 84.063C126.278 84.625 125.136 85.176 124.013 85.757C123.976 85.777 123.953 85.718 123.988 85.698C127.84 83.4184 131.813 81.3488 135.888 79.498C137.048 78.982 138.228 78.509 139.409 78.043C139.42 78.0383 139.432 78.036 139.445 78.036C139.457 78.036 139.469 78.0384 139.48 78.0431C139.491 78.0478 139.502 78.0547 139.51 78.0633C139.519 78.072 139.526 78.0822 139.531 78.0935C139.535 78.1048 139.538 78.1169 139.538 78.1291C139.538 78.1413 139.535 78.1534 139.53 78.1647C139.526 78.176 139.519 78.1863 139.51 78.1949C139.502 78.2035 139.491 78.2103 139.48 78.215Z" fill="white"/>
<path d="M124.682 85.734C124.7 85.7584 124.713 85.7863 124.72 85.816C124.725 85.848 124.727 85.882 124.731 85.916C124.737 85.979 124.744 86.041 124.749 86.103C124.761 86.236 124.77 86.368 124.773 86.503C124.773 86.762 124.773 87.02 124.76 87.279C124.76 87.315 124.698 87.317 124.696 87.279C124.681 87.023 124.657 86.767 124.629 86.512C124.615 86.388 124.604 86.263 124.591 86.139C124.584 86.0723 124.577 86.0057 124.569 85.939C124.554 85.8772 124.554 85.8128 124.569 85.751C124.572 85.7395 124.579 85.7292 124.588 85.7213C124.597 85.7134 124.608 85.7082 124.62 85.7064C124.632 85.7047 124.644 85.7063 124.655 85.7112C124.666 85.7161 124.675 85.724 124.682 85.734Z" fill="white"/>
<path d="M126.582 84.84C126.6 84.8641 126.613 84.8917 126.62 84.921C126.625 84.954 126.627 84.987 126.631 85.021C126.637 85.083 126.643 85.145 126.649 85.208C126.661 85.341 126.67 85.472 126.673 85.608C126.678 85.867 126.673 86.125 126.66 86.383C126.66 86.419 126.598 86.421 126.596 86.383C126.581 86.127 126.557 85.871 126.529 85.616C126.515 85.492 126.504 85.367 126.491 85.243C126.485 85.177 126.477 85.111 126.47 85.043C126.455 84.9812 126.455 84.9168 126.47 84.855C126.474 84.8439 126.481 84.834 126.49 84.8265C126.499 84.8191 126.51 84.8143 126.521 84.8127C126.533 84.8111 126.545 84.8129 126.556 84.8177C126.566 84.8225 126.575 84.8303 126.582 84.84Z" fill="white"/>
<path d="M128.483 83.945C128.501 83.9694 128.514 83.9974 128.521 84.027C128.527 84.059 128.529 84.093 128.532 84.127C128.538 84.19 128.544 84.252 128.55 84.314C128.562 84.447 128.57 84.579 128.573 84.714C128.578 84.973 128.573 85.231 128.561 85.49C128.561 85.526 128.499 85.528 128.497 85.49C128.482 85.234 128.458 84.979 128.43 84.723C128.416 84.599 128.405 84.474 128.392 84.35C128.385 84.284 128.378 84.218 128.371 84.15C128.356 84.0882 128.356 84.0238 128.371 83.962C128.374 83.9508 128.381 83.9407 128.39 83.933C128.399 83.9253 128.41 83.9203 128.422 83.9185C128.433 83.9167 128.445 83.9183 128.456 83.923C128.467 83.9277 128.476 83.9353 128.483 83.945Z" fill="white"/>
<path d="M130.383 83.05C130.401 83.0741 130.414 83.1017 130.421 83.131C130.427 83.164 130.429 83.197 130.432 83.231C130.439 83.293 130.445 83.355 130.45 83.418C130.462 83.551 130.471 83.683 130.474 83.818C130.479 84.077 130.474 84.335 130.462 84.594C130.462 84.63 130.4 84.632 130.398 84.594C130.383 84.338 130.359 84.083 130.331 83.827C130.317 83.703 130.306 83.578 130.293 83.454C130.286 83.388 130.279 83.322 130.272 83.254C130.257 83.1922 130.257 83.1278 130.272 83.066C130.276 83.0551 130.282 83.0453 130.291 83.0379C130.3 83.0305 130.311 83.0258 130.323 83.0241C130.334 83.0224 130.346 83.024 130.356 83.0286C130.367 83.0331 130.376 83.0406 130.383 83.05Z" fill="white"/>
<path d="M132.284 82.155C132.302 82.1795 132.315 82.2074 132.322 82.237C132.327 82.269 132.329 82.303 132.333 82.337C132.339 82.399 132.346 82.461 132.351 82.524C132.363 82.656 132.372 82.788 132.375 82.924C132.38 83.183 132.375 83.441 132.362 83.7C132.362 83.736 132.3 83.738 132.298 83.7C132.283 83.444 132.259 83.188 132.231 82.933C132.217 82.809 132.206 82.685 132.193 82.56C132.186 82.4934 132.179 82.4267 132.171 82.36C132.156 82.2982 132.156 82.2338 132.171 82.172C132.174 82.1605 132.181 82.1502 132.19 82.1423C132.199 82.1344 132.21 82.1293 132.222 82.1275C132.234 82.1257 132.246 82.1273 132.257 82.1322C132.268 82.1371 132.277 82.145 132.284 82.155Z" fill="white"/>
<path d="M134.185 81.26C134.203 81.2841 134.216 81.3117 134.223 81.341C134.228 81.374 134.23 81.407 134.234 81.441C134.24 81.503 134.247 81.566 134.252 81.628C134.264 81.761 134.273 81.893 134.276 82.028C134.281 82.287 134.276 82.545 134.263 82.804C134.263 82.84 134.201 82.842 134.199 82.804C134.184 82.548 134.16 82.292 134.132 82.037C134.118 81.913 134.107 81.788 134.094 81.664C134.088 81.598 134.08 81.532 134.073 81.464C134.058 81.4022 134.058 81.3378 134.073 81.276C134.077 81.2648 134.083 81.2548 134.092 81.2472C134.101 81.2397 134.112 81.2348 134.124 81.2331C134.136 81.2314 134.148 81.2331 134.158 81.2378C134.169 81.2426 134.178 81.2503 134.185 81.26Z" fill="white"/>
<path d="M136.086 80.365C136.104 80.3894 136.117 80.4173 136.124 80.447C136.13 80.48 136.132 80.513 136.135 80.547C136.141 80.609 136.147 80.671 136.153 80.734C136.165 80.867 136.174 80.998 136.177 81.134C136.182 81.393 136.177 81.651 136.164 81.91C136.164 81.946 136.102 81.948 136.1 81.91C136.085 81.654 136.061 81.398 136.033 81.143C136.019 81.019 136.008 80.894 135.995 80.769C135.989 80.703 135.981 80.637 135.974 80.569C135.959 80.5072 135.959 80.4428 135.974 80.381C135.978 80.3698 135.984 80.3599 135.993 80.3523C136.002 80.3447 136.013 80.3398 136.025 80.3381C136.037 80.3364 136.049 80.3381 136.059 80.3428C136.07 80.3476 136.079 80.3553 136.086 80.365Z" fill="white"/>
<path d="M137.981 79.471C137.999 79.4954 138.012 79.5233 138.019 79.553C138.025 79.585 138.027 79.619 138.03 79.653C138.037 79.716 138.043 79.778 138.048 79.84C138.06 79.973 138.069 80.105 138.072 80.24C138.077 80.499 138.072 80.757 138.06 81.016C138.06 81.052 137.998 81.054 137.996 81.016C137.981 80.76 137.957 80.505 137.929 80.249C137.915 80.125 137.904 80 137.891 79.876C137.884 79.81 137.877 79.744 137.87 79.676C137.855 79.6142 137.855 79.5498 137.87 79.488C137.874 79.477 137.88 79.4672 137.889 79.4597C137.898 79.4522 137.909 79.4472 137.92 79.4455C137.932 79.4437 137.944 79.4452 137.954 79.4497C137.965 79.4542 137.974 79.4616 137.981 79.471Z" fill="white"/>
<path d="M139.886 78.576C139.904 78.6001 139.917 78.6277 139.924 78.657C139.929 78.69 139.932 78.723 139.935 78.757C139.941 78.819 139.948 78.881 139.953 78.944C139.965 79.077 139.974 79.209 139.977 79.344C139.982 79.603 139.977 79.861 139.964 80.119C139.964 80.155 139.902 80.157 139.9 80.119C139.885 79.863 139.861 79.607 139.833 79.352C139.819 79.228 139.808 79.103 139.795 78.979C139.788 78.913 139.781 78.847 139.773 78.779C139.758 78.7172 139.758 78.6528 139.773 78.591C139.777 78.5796 139.783 78.5695 139.793 78.5618C139.802 78.5541 139.813 78.5492 139.825 78.5477C139.837 78.5461 139.849 78.5479 139.859 78.5529C139.87 78.558 139.88 78.566 139.886 78.576Z" fill="white"/>
<path d="M141.826 86.133L121.633 90.422C121.633 90.422 124.055 118.702 123.967 119.022C117.81 119.799 111.602 120.099 105.398 119.922C105.398 119.922 91.513 113.887 82.034 124.301L80.686 142.572C107.097 145.772 142.457 144.29 147.145 135.296C152.238 125.528 141.826 86.133 141.826 86.133Z" fill="#A0BDFF"/>
<path d="M123.919 118.896C121.679 118.896 117.919 119.319 115.682 119.406C113.46 119.492 111.239 119.623 109.018 119.738C107.74 119.804 106.671 119.725 105.397 119.847C105.387 119.847 105.378 119.851 105.371 119.858C105.364 119.865 105.36 119.874 105.36 119.884C105.36 119.894 105.364 119.903 105.371 119.91C105.378 119.917 105.387 119.921 105.397 119.921C109.791 120.157 114.197 120.071 118.578 119.661C119.857 119.546 122.703 119.243 123.972 119.053C124.034 119.046 124.139 118.896 123.919 118.896Z" fill="#455A64"/>
<path d="M104.138 117.993C103.309 117.075 102.377 116.256 101.361 115.551C101.326 115.526 101.286 115.583 101.317 115.61C102.202 116.443 103.035 117.332 103.809 118.269C104.648 119.173 105.419 120.139 106.115 121.157C106.118 121.161 106.123 121.163 106.128 121.164C106.133 121.164 106.138 121.163 106.142 121.161C106.146 121.158 106.149 121.154 106.151 121.149C106.152 121.145 106.152 121.14 106.15 121.135C105.592 120.02 104.917 118.967 104.138 117.993Z" fill="#455A64"/>
<path d="M148.551 121.691C148.527 120.691 148.439 119.691 148.362 118.699C148.21 116.724 148.014 114.754 147.751 112.791C147.22 108.837 146.534 104.91 145.651 101.019C145.404 99.932 145.151 98.846 144.872 97.765C144.621 96.658 144.306 95.5663 143.931 94.495C143.899 94.412 143.748 94.42 143.764 94.522C143.907 95.479 144.164 96.429 144.375 97.373C144.586 98.317 144.805 99.29 145.008 100.25C145.423 102.209 145.802 104.176 146.147 106.15C146.835 110.071 147.392 114.009 147.857 117.962C147.988 119.072 148.098 120.185 148.218 121.296C148.278 121.852 148.502 126.296 148.513 126.871C148.513 126.92 148.592 126.917 148.587 126.871C148.541 126.376 148.586 123.178 148.551 121.691Z" fill="#455A64"/>
<path d="M123.918 115.826C123.862 114.793 123.714 113.766 123.475 112.759C123.472 112.754 123.468 112.751 123.463 112.748C123.458 112.746 123.452 112.745 123.447 112.746C123.441 112.747 123.436 112.749 123.432 112.753C123.428 112.757 123.425 112.762 123.424 112.767C123.359 113.83 123.395 114.897 123.532 115.953C123.629 116.984 123.779 118.009 123.98 119.024C123.984 119.03 123.99 119.035 123.996 119.038C124.003 119.04 124.01 119.041 124.018 119.04C124.025 119.039 124.031 119.036 124.037 119.031C124.042 119.026 124.046 119.02 124.048 119.013C124.061 117.949 124.018 116.885 123.918 115.826Z" fill="#455A64"/>
<path d="M142.531 124.849C142.455 121.291 142.211 117.738 141.852 114.198C141.144 107.214 139.99 100.279 138.752 93.371C138.601 92.523 138.449 91.6757 138.296 90.829C138.287 90.781 138.217 90.804 138.225 90.85C139.379 97.76 140.563 104.671 141.347 111.636C141.736 115.094 142.034 118.564 142.182 122.041C142.254 123.728 142.296 125.418 142.282 127.107C142.306 128.524 142.175 129.939 141.892 131.328C141.617 132.705 140.975 133.981 140.033 135.022C139.023 136.011 137.793 136.748 136.445 137.173C134.984 137.652 133.491 138.027 131.977 138.293C130.31 138.623 128.631 138.893 126.939 139.102C120.169 139.833 113.355 140.073 106.55 139.821C99.58 139.681 92.611 139.421 85.64 139.345C84.766 139.335 83.893 139.324 83.02 139.303C82.972 139.303 82.974 139.376 83.02 139.377C86.615 139.488 90.208 139.646 93.803 139.756C97.3643 139.865 100.926 139.971 104.488 140.072C111.37 140.382 118.265 140.233 125.128 139.627C128.45 139.31 131.743 138.741 134.979 137.927C136.343 137.608 137.649 137.078 138.849 136.356C139.992 135.632 140.908 134.599 141.489 133.377C142.74 130.76 142.591 127.67 142.531 124.849Z" fill="#455A64"/>
<path d="M141.856 89.294C136.919 90.059 131.994 90.883 127.115 91.961C125.726 92.268 124.35 92.633 122.954 92.909C122.907 92.919 122.927 92.99 122.974 92.981C124.206 92.754 125.449 92.607 126.685 92.408C127.921 92.209 129.152 92.008 130.385 91.789C132.84 91.355 135.274 90.816 137.712 90.295C139.104 89.995 140.491 89.682 141.878 89.365C141.926 89.356 141.905 89.285 141.856 89.294Z" fill="#455A64"/>
<path d="M38.634 115.073C39.3668 111.882 40.5857 108.822 42.248 106.001C43.203 104.559 46.383 100.707 47.548 101.355C48.713 102.003 47.881 103.211 47.881 103.211C47.881 103.211 49.468 101.785 50.581 102.543C51.694 103.301 50.34 105.143 50.34 105.143C50.34 105.143 52.076 103.797 53.131 104.634C54.186 105.471 52.516 107.089 52.516 107.089C52.516 107.089 54.047 105.789 54.625 106.839C55.325 108.107 52.225 110.194 51.252 111.839C51.031 112.213 47.302 119.744 47.302 119.744L38.634 115.073Z" fill="#FFC3BD"/>
<path d="M52.5081 107.126C50.5993 108.295 49.1568 110.091 48.4281 112.207C48.4071 112.255 48.3281 112.235 48.3481 112.182C49.1861 109.661 49.9061 108.192 52.4391 107.011C52.5631 106.954 52.6161 107.052 52.5081 107.126Z" fill="#263238"/>
<path d="M50.408 105.049C48.5365 106.489 47.0458 108.365 46.066 110.513C46.047 110.549 45.985 110.521 46.001 110.483C47.093 107.913 47.845 106.463 50.301 104.951C50.41 104.883 50.509 104.966 50.408 105.049Z" fill="#263238"/>
<path d="M47.7051 103.37C45.901 104.887 44.5441 106.866 43.7801 109.096C43.7761 109.109 43.767 109.12 43.7548 109.127C43.7426 109.134 43.7283 109.135 43.7151 109.131C43.7018 109.127 43.6907 109.118 43.6841 109.106C43.6775 109.094 43.6761 109.079 43.6801 109.066C44.1933 106.704 45.6149 104.638 47.6381 103.314C47.7821 103.214 47.8321 103.25 47.7051 103.37Z" fill="#263238"/>
<path d="M47.084 121.689C48.3902 120.672 49.6196 119.559 50.762 118.361C51.741 117.161 53.747 111.361 52.518 110.854C50.931 110.203 49.112 113.326 48.418 114.972C48.418 114.972 44.748 113.462 42.958 115.421C41.168 117.38 47.084 121.689 47.084 121.689Z" fill="#FFC3BD"/>
<path d="M52.0209 110.818C50.1449 111.268 49.3779 113.487 48.5889 115.034C48.5783 115.057 48.5622 115.078 48.542 115.094C48.5218 115.109 48.498 115.12 48.4727 115.125C48.4475 115.129 48.4215 115.128 48.397 115.12C48.3724 115.113 48.3501 115.099 48.3319 115.081C46.7519 114.551 44.3679 114.263 42.9549 115.312C42.947 115.319 42.9365 115.323 42.9258 115.322C42.9151 115.322 42.9051 115.317 42.8979 115.309C42.8908 115.301 42.8871 115.291 42.8876 115.28C42.8882 115.269 42.893 115.259 42.9009 115.252C44.2629 113.921 46.6279 114.013 48.3229 114.704C49.1079 113.104 49.9749 110.913 52.0169 110.804C52.0183 110.805 52.0195 110.805 52.0204 110.806C52.0214 110.807 52.0221 110.809 52.0225 110.81C52.0229 110.811 52.0229 110.813 52.0227 110.814C52.0224 110.816 52.0218 110.817 52.0209 110.818Z" fill="#263238"/>
<path d="M60.005 121.916C55.6593 128.448 49.7836 133.819 42.889 137.562C38.467 139.986 33.831 137.162 33.068 135.371C31.436 131.543 37.126 116.685 39.18 113.69C39.789 112.801 40.705 114.583 43.564 117.076C44.918 118.257 50.11 117.953 49.743 119.417C49.481 120.46 47.783 123.423 48.021 123.404C48.608 123.355 52.904 120.232 57.452 117.304C63.711 113.276 61.466 119.772 60.005 121.916Z" fill="#FFC3BD"/>
<path d="M48.0289 123.284C47.7569 123.647 43.8289 131.666 42.8949 133.318C42.8709 133.36 42.9349 133.395 42.9599 133.354C43.9599 131.741 44.9949 130.147 45.8769 128.466C46.3129 127.636 46.7619 126.804 47.1199 125.938C47.2909 125.524 47.4489 125.106 47.6109 124.688C47.8162 124.25 47.9793 123.792 48.0979 123.323C48.1049 123.285 48.0549 123.248 48.0289 123.284Z" fill="#263238"/>
<path d="M48.397 122.644L58.402 126.473C59.9996 124.182 61.4766 121.808 62.827 119.363C64.619 115.807 63.718 114.308 59.195 116.144C56.168 117.371 48.397 122.644 48.397 122.644Z" fill="#346AE1"/>
<path d="M49.775 122.083C51.27 122.54 52.754 123.017 54.22 123.56C54.9533 123.831 55.68 124.113 56.4 124.406C57.122 124.699 57.815 125.067 58.539 125.349C58.579 125.365 58.551 125.428 58.512 125.41C57.804 125.09 57.045 124.864 56.321 124.584C55.597 124.304 54.865 124.025 54.135 123.752C52.677 123.206 51.219 122.652 49.749 122.144C49.707 122.133 49.735 122.071 49.775 122.083Z" fill="#263238"/>
<path d="M68.0959 122.891H66.2049C66.0908 121.777 65.8034 120.688 65.3529 119.663C65.5776 120.723 65.662 121.809 65.6039 122.891H63.9429C63.7838 121.048 63.2564 119.256 62.3919 117.621C62.8664 119.337 63.0967 121.111 63.0759 122.891H48.4419C47.7929 119.804 48.2959 116.444 48.0419 117.177C47.4687 119.029 47.1597 120.953 47.1239 122.891H45.4949C45.4493 122.112 45.4936 121.329 45.6269 120.56C45.8409 119.535 44.9999 121.56 44.8929 122.891H43.8559C43.7607 120.307 44.2388 117.734 45.2559 115.357C47.3929 111.185 46.1419 109.641 47.0189 105.073C48.0189 99.873 54.8469 93.591 61.6719 100.161C62.8392 101.175 63.7778 102.426 64.4255 103.83C65.0732 105.234 65.4152 106.76 65.4289 108.306C65.4609 112.022 64.6159 113.985 65.8909 115.894C67.3159 117.95 68.0847 120.389 68.0959 122.891Z" fill="#263238"/>
<path d="M43.1879 122.27C43.0134 120.687 43.1621 119.086 43.6249 117.562C43.8457 116.796 44.1283 116.049 44.4699 115.329C44.6339 114.969 44.8369 114.614 45.0119 114.271C45.1899 113.932 45.3433 113.581 45.4709 113.22C45.929 111.731 46.2237 110.197 46.3499 108.645C46.4499 107.863 46.5499 107.079 46.7129 106.303C46.8673 105.526 47.1082 104.769 47.4309 104.045C47.0088 105.557 46.7648 107.113 46.7039 108.682C46.6449 109.467 46.5689 110.254 46.4579 111.041C46.3449 111.834 46.1581 112.615 45.8999 113.374C45.7616 113.754 45.5962 114.124 45.4049 114.481C45.2169 114.836 45.0309 115.166 44.8569 115.517C44.509 116.212 44.2102 116.931 43.9629 117.668C43.7133 118.406 43.521 119.163 43.3879 119.931C43.3149 120.315 43.2679 120.703 43.2309 121.094C43.1939 121.485 43.1829 121.876 43.1879 122.27Z" fill="#263238"/>
<path d="M65.4329 108.307C65.4649 108.939 65.4199 109.57 65.4329 110.197C65.4459 110.824 65.4469 111.449 65.5019 112.067C65.5546 112.683 65.6587 113.293 65.8129 113.891C65.8469 114.041 65.8999 114.185 65.9409 114.332L65.9739 114.442L66.0099 114.533C66.0379 114.596 66.0709 114.661 66.1099 114.727C66.2569 114.991 66.4259 115.257 66.5909 115.527C66.9159 116.068 67.2349 116.621 67.5119 117.197C67.7911 117.773 68.0252 118.369 68.2119 118.981C68.3965 119.592 68.5234 120.22 68.5909 120.855C68.6526 121.487 68.6499 122.124 68.5829 122.755C68.5382 121.505 68.299 120.269 67.8739 119.093C67.4366 117.928 66.8779 116.813 66.2069 115.765C66.0459 115.495 65.8799 115.229 65.7239 114.94C65.6849 114.866 65.6479 114.791 65.6129 114.71C65.5959 114.669 65.5789 114.622 65.5639 114.581L65.5299 114.464C65.4879 114.308 65.4299 114.155 65.4039 113.997C65.2592 113.372 65.1762 112.734 65.1559 112.092C65.1352 111.458 65.1562 110.823 65.2189 110.192C65.2729 109.556 65.3629 108.933 65.4329 108.307Z" fill="#263238"/>
<path d="M80.394 143.251C83.5601 140.073 85.6054 135.95 86.2206 131.507C86.8358 127.063 85.9875 122.54 83.804 118.621C83.804 118.621 79.049 119.377 77.804 119.133C74.019 118.396 71.182 116.3 66.824 114.676C62.466 113.052 59.455 114.327 57.724 117.287C57.292 118.026 55.167 128.818 56.724 132.646C57.945 135.657 62.891 136.53 62.891 136.53C62.891 136.53 72.071 144.17 80.394 143.251Z" fill="#346AE1"/>
<path d="M63.328 116.79C63.296 117.282 61.545 120.733 59.363 120.99C58.652 121.073 58.027 117.213 58.027 117.213L57.915 116.938L56.361 113.096L60.549 109.31L61.16 108.799C61.16 108.799 61.516 109.878 61.946 111.227C61.966 111.289 61.986 111.352 62.007 111.419C62.028 111.486 62.059 111.566 62.08 111.637C62.147 111.837 62.214 112.043 62.28 112.248C62.329 112.405 62.38 112.557 62.422 112.722C62.464 112.887 62.515 113.049 62.565 113.214C62.9008 114.387 63.1557 115.582 63.328 116.79Z" fill="#FFC3BD"/>
<path d="M61.946 111.229C61.729 112.417 61.256 113.543 60.5598 114.529C59.8637 115.515 58.9612 116.338 57.915 116.94L56.361 113.098L60.549 109.312L61.16 108.801C61.16 108.801 61.516 109.88 61.946 111.229Z" fill="#263238"/>
<path d="M49.466 108.828C51.092 115.918 55.523 115.745 57.051 115.393C58.438 115.073 63.123 113.808 62.238 106.587C61.353 99.366 57.538 97.882 54.331 98.445C51.124 99.008 47.84 101.737 49.466 108.828Z" fill="#FFC3BD"/>
<path d="M50.5269 107.448C50.6778 107.375 50.8247 107.294 50.9669 107.206C51.1331 107.142 51.2736 107.025 51.3669 106.873C51.3866 106.82 51.3881 106.761 51.3713 106.707C51.3545 106.653 51.3203 106.606 51.2739 106.573C51.172 106.521 51.0581 106.498 50.944 106.505C50.8299 106.512 50.7197 106.549 50.6249 106.613C50.4129 106.713 50.2457 106.888 50.1559 107.105C50.1385 107.156 50.1361 107.21 50.1492 107.262C50.1623 107.314 50.1902 107.361 50.2295 107.398C50.2688 107.434 50.3179 107.458 50.3707 107.467C50.4235 107.476 50.4778 107.469 50.5269 107.448Z" fill="#263238"/>
<path d="M55.3909 106.131C55.2251 106.154 55.0582 106.169 54.8909 106.175C54.7168 106.215 54.5344 106.196 54.3719 106.122C54.3259 106.089 54.2919 106.042 54.2753 105.988C54.2587 105.933 54.2603 105.875 54.2799 105.822C54.3357 105.722 54.4171 105.639 54.5158 105.582C54.6144 105.524 54.7266 105.494 54.8409 105.494C55.0728 105.459 55.3095 105.511 55.5049 105.641C55.5471 105.673 55.5791 105.717 55.597 105.767C55.615 105.817 55.6181 105.871 55.6061 105.923C55.5941 105.975 55.5674 106.022 55.5292 106.059C55.491 106.096 55.443 106.121 55.3909 106.131Z" fill="#263238"/>
<path d="M54.9949 108.168C54.9949 108.149 55.0389 108.18 55.0439 108.2C55.1619 108.681 55.3779 109.213 55.8539 109.251C55.8689 109.251 55.8739 109.276 55.8539 109.279C55.3049 109.351 55.0289 108.643 54.9949 108.168Z" fill="#263238"/>
<path d="M55.2819 107.553C56.0329 107.28 56.5219 108.803 55.8269 109.053C55.1319 109.303 54.6519 107.78 55.2819 107.553Z" fill="#263238"/>
<path d="M55.6069 107.532C55.7679 107.576 55.9459 107.685 56.1119 107.65C56.3029 107.609 56.3919 107.404 56.4639 107.212C56.4719 107.192 56.4889 107.201 56.4959 107.221C56.5646 107.353 56.5805 107.506 56.5404 107.649C56.5002 107.792 56.4071 107.914 56.2799 107.991C56.0079 108.122 55.7199 107.93 55.5519 107.66C55.5199 107.615 55.5419 107.519 55.6069 107.532Z" fill="#263238"/>
<path d="M51.9728 108.903C51.9628 108.886 51.9438 108.937 51.9498 108.957C52.1198 109.423 52.2368 109.984 51.8628 110.281C51.8508 110.29 51.8628 110.313 51.8748 110.306C52.3708 110.061 52.2088 109.317 51.9728 108.903Z" fill="#263238"/>
<path d="M51.3898 108.551C50.6138 108.743 51.0558 110.28 51.7738 110.102C52.4918 109.924 52.0358 108.39 51.3898 108.551Z" fill="#263238"/>
<path d="M51.0989 108.744C50.9989 108.86 50.9229 109.044 50.7809 109.094C50.6159 109.153 50.4439 109.023 50.2909 108.894C50.2749 108.881 50.2669 108.894 50.2719 108.918C50.3479 109.218 50.5329 109.492 50.8319 109.468C51.1039 109.445 51.2199 109.139 51.2059 108.826C51.2029 108.768 51.1379 108.697 51.0989 108.744Z" fill="#263238"/>
<path d="M55.9259 111.861C55.8559 112.011 55.7999 112.202 55.6369 112.279C55.4627 112.34 55.2777 112.363 55.0939 112.348C55.0901 112.348 55.0864 112.349 55.0832 112.351C55.0801 112.353 55.0777 112.356 55.0764 112.359C55.0752 112.363 55.0751 112.367 55.0763 112.37C55.0775 112.374 55.0798 112.377 55.0829 112.379C55.1831 112.446 55.2996 112.484 55.4198 112.49C55.5401 112.496 55.6597 112.469 55.7659 112.412C55.8513 112.352 55.917 112.268 55.9547 112.171C55.9925 112.074 56.0005 111.968 55.9779 111.866C55.9759 111.836 55.9369 111.839 55.9259 111.861Z" fill="#263238"/>
<path d="M53.4199 110.76C53.4199 110.76 53.5399 111.497 53.6429 111.831C53.6529 111.862 53.7429 111.852 53.8539 111.824C53.8599 111.824 53.8639 111.824 53.8669 111.824C54.1699 111.788 54.4569 111.668 54.6965 111.479C54.9361 111.291 55.1189 111.039 55.2249 110.753C55.2379 110.713 55.1849 110.692 55.1609 110.722C54.8255 111.144 54.3629 111.446 53.8419 111.583C53.7899 111.498 53.6779 110.314 53.6239 110.326C53.3738 110.427 53.1383 110.562 52.9239 110.726C52.6239 109.198 52.5799 107.635 52.2639 106.118C52.2612 106.107 52.2548 106.098 52.2458 106.091C52.2369 106.085 52.226 106.081 52.2149 106.082C52.2038 106.083 52.1933 106.087 52.1851 106.094C52.1769 106.102 52.1715 106.112 52.1699 106.123C52.1703 107.8 52.3378 109.472 52.6699 111.116C52.6949 111.32 53.3039 110.858 53.4199 110.76Z" fill="#263238"/>
<path d="M62.2729 107.052C60.4669 107.558 58.1979 102.235 57.9259 101.578C58.2887 102.483 58.5532 103.424 58.7149 104.385C58.522 104.442 58.3209 104.467 58.1199 104.458C58.0324 104.188 57.9244 103.925 57.7969 103.671C57.7429 103.55 57.8359 103.958 57.9239 104.471C57.8139 104.471 57.6939 104.477 57.5649 104.484C57.4006 103.9 57.1591 103.34 56.8469 102.82C56.8729 103.386 56.9371 103.949 57.0389 104.506C55.3734 104.546 53.7174 104.77 52.1009 105.173C51.6499 105.298 51.2679 105.426 50.9329 105.551C50.7179 104.885 50.5679 104.151 50.5679 104.318C50.5632 104.764 50.6024 105.209 50.6849 105.647C50.5039 105.716 50.3369 105.783 50.1849 105.847C49.8389 104.919 49.8069 103.272 49.7299 103.547C49.509 104.399 49.4513 105.285 49.5599 106.158C48.9599 106.487 48.8189 106.67 48.7489 106.509C48.3502 104.591 48.6469 102.594 49.5859 100.875C51.1479 98.062 55.4319 96.114 58.9739 98.551C60.4534 98.9922 61.7101 99.9787 62.4899 101.311C63.5079 103.378 63.3159 106.758 62.2729 107.052Z" fill="#263238"/>
<path d="M61.236 107.389C61.236 107.389 62.05 104.741 63.204 104.963C64.358 105.185 64.232 108.685 63.219 109.484C63.0961 109.596 62.952 109.681 62.7952 109.736C62.6384 109.79 62.4723 109.812 62.3067 109.801C62.1412 109.789 61.9796 109.744 61.8319 109.669C61.6841 109.593 61.5532 109.489 61.447 109.361L61.236 107.389Z" fill="#FFC3BD"/>
<path d="M63.143 105.965C63.161 105.957 63.173 105.982 63.159 105.994C62.8481 106.298 62.6045 106.664 62.4438 107.068C62.2831 107.471 62.2089 107.905 62.226 108.339C62.2468 108.243 62.2882 108.153 62.3472 108.074C62.4063 107.996 62.4817 107.931 62.5682 107.885C62.6547 107.838 62.7503 107.811 62.8483 107.805C62.9464 107.799 63.0445 107.814 63.136 107.85C63.162 107.858 63.152 107.898 63.128 107.9C62.9717 107.901 62.8194 107.95 62.692 108.041C62.5647 108.131 62.4686 108.259 62.417 108.407C62.3323 108.654 62.2743 108.91 62.244 109.17C62.229 109.254 62.087 109.258 62.087 109.17V109.149C61.731 108.124 62.071 106.424 63.143 105.965Z" fill="#263238"/>
<path d="M69.5499 118.067C75.4919 125.444 83.6079 137.978 80.2149 140.902C74.6369 145.709 58.0789 148.802 54.2759 149.355C52.6339 149.593 49.0759 138.915 50.1409 137.496C51.2059 136.077 68.7589 134.667 68.8559 133.585C68.9109 132.972 67.3559 127.759 65.4789 121.272C63.3159 113.792 67.8499 115.956 69.5499 118.067Z" fill="#FFC3BD"/>
<path d="M52.9989 136.539C52.9989 136.539 47.9539 136.623 44.6579 136.834C42.5068 136.93 40.3847 137.369 38.3719 138.134C36.4099 139.187 28.8719 144.846 30.2089 146.701C31.4149 148.381 37.2699 142.701 37.2699 142.701C37.2699 142.701 30.8549 147.913 32.6799 149.669C34.5049 151.425 40.2649 144.124 40.2649 144.124C40.2649 144.124 33.7939 149.624 35.9649 151.14C37.6029 152.284 43.1929 145.966 43.1929 145.966C43.1929 145.966 37.6639 150.735 39.2979 151.983C41.1039 153.363 46.6299 147.854 46.6299 147.854C51.3179 150.329 54.5619 149.589 56.8069 148.789C57.3479 148.596 52.9989 136.539 52.9989 136.539Z" fill="#FFC3BD"/>
<path d="M39.3729 140.757C38.5969 141.342 37.8079 141.929 37.0869 142.581C36.3659 143.233 35.6669 143.911 35.0099 144.626C34.1327 145.545 33.364 146.562 32.7189 147.656C34.0812 145.89 35.6059 144.254 37.2729 142.772C37.9919 142.122 38.6789 141.435 39.3989 140.783C39.4149 140.762 39.3919 140.743 39.3729 140.757Z" fill="#263238"/>
<path d="M41.7739 143.318C40.8159 144.108 39.8359 144.857 38.9119 145.689C37.9879 146.521 37.1939 147.384 36.3339 148.273C36.2679 148.342 36.3259 148.355 36.3959 148.288C37.2909 147.433 38.1829 146.713 39.0869 145.869C39.9909 145.025 40.8629 144.146 41.7939 143.339C41.8089 143.326 41.7879 143.305 41.7739 143.318Z" fill="#263238"/>
<path d="M44.2299 145.145C42.731 146.321 41.3571 147.648 40.1299 149.105C40.0669 149.176 40.1449 149.184 40.2129 149.115C41.5499 147.773 42.5899 146.715 44.2679 145.197C44.2959 145.174 44.2619 145.121 44.2299 145.145Z" fill="#263238"/>
<path d="M56.7519 135.896C56.0439 135.908 54.5589 136.236 52.9039 136.345C49.1789 136.589 43.9039 136.699 42.0269 136.845C36.9569 137.226 33.9579 141.045 32.5649 142.385C31.7319 143.199 30.981 144.092 30.3229 145.053C29.9809 145.574 29.6599 146.313 30.1459 146.87C30.7369 147.548 32.8749 146.761 35.0639 144.682C35.1429 144.607 35.0909 144.563 35.0099 144.632C31.9309 147.254 30.6719 146.991 30.3339 146.563C30.1149 146.286 30.3079 145.794 30.4889 145.416C30.7821 144.87 31.144 144.363 31.5659 143.909C32.9673 142.328 34.526 140.893 36.2179 139.627C38.0348 138.2 40.2196 137.319 42.5179 137.086C44.1499 136.912 49.1759 136.836 52.9299 136.559C54.5739 136.437 56.0499 136.075 56.7629 135.989C56.8119 135.977 56.8059 135.895 56.7519 135.896Z" fill="#263238"/>
<path d="M77.1369 127.425L66.4259 127.631C65.7009 124.933 65.1171 122.2 64.6769 119.441C64.1979 115.488 65.5539 114.383 69.1859 117.641C71.6159 119.828 77.1369 127.425 77.1369 127.425Z" fill="#346AE1"/>
<path d="M67.7329 127.609C67.6179 127.59 66.5169 127.575 66.4329 127.597C66.2849 126.981 65.5569 124.109 65.4709 123.812C65.47 123.808 65.4683 123.804 65.4658 123.8C65.4633 123.797 65.4601 123.793 65.4565 123.791C65.4528 123.789 65.4487 123.787 65.4444 123.786C65.4401 123.786 65.4357 123.786 65.4314 123.787C65.4272 123.787 65.4231 123.789 65.4195 123.792C65.4159 123.794 65.4129 123.797 65.4105 123.801C65.4081 123.805 65.4065 123.809 65.4057 123.813C65.4049 123.817 65.405 123.822 65.4059 123.826C65.4379 124 65.5569 124.663 65.6959 125.405L65.6789 125.376C65.6049 125.246 65.5209 125.12 65.4389 124.994C65.3569 124.868 65.2879 124.721 65.2149 124.585C65.1929 124.543 65.1269 124.585 65.1509 124.624C65.2259 124.753 65.3089 124.881 65.3729 125.017C65.4369 125.153 65.4899 125.274 65.5559 125.399C65.6219 125.524 65.6889 125.646 65.7559 125.77L65.7659 125.788C65.9249 126.625 66.0949 127.475 66.1829 127.788C66.7002 127.775 67.2162 127.73 67.7279 127.654C67.7549 127.643 67.7509 127.612 67.7329 127.609Z" fill="#263238"/>
<path d="M76.0319 126.43C74.4709 126.352 72.9129 126.297 71.3499 126.311C70.5699 126.318 69.7906 126.336 69.0119 126.367C68.2339 126.398 67.4569 126.509 66.6799 126.528C66.6369 126.528 66.6419 126.598 66.6799 126.595C67.4539 126.535 68.2439 126.58 69.0209 126.562C69.7979 126.544 70.5799 126.53 71.3599 126.521C72.9169 126.502 74.4749 126.48 76.0319 126.497C76.0809 126.497 76.0729 126.432 76.0319 126.43Z" fill="#263238"/>
<path d="M73.1379 122.074C73.1349 122.071 73.1311 122.07 73.1271 122.07C73.1231 122.07 73.1193 122.071 73.1162 122.074C73.1131 122.076 73.111 122.08 73.1102 122.084C73.1094 122.087 73.11 122.092 73.1119 122.095C73.3449 122.56 76.1319 126.368 77.0209 127.355C76.7429 127.369 76.466 127.4 76.1919 127.449C76.5557 127.481 76.9216 127.484 77.2859 127.458C77.3059 127.45 73.5399 122.419 73.1379 122.074Z" fill="#263238"/>
<path d="M61.146 85.179C60.1272 87.1803 58.5684 88.8562 56.646 90.017C54.5966 89.0992 52.8456 87.6251 51.592 85.762C50.269 83.454 50.859 80.837 52.683 80.162C55.299 79.193 56.267 83.794 56.267 83.794C56.267 83.794 56.667 79.11 59.385 79.754C61.276 80.201 62.179 82.728 61.146 85.179Z" fill="#FFC727"/>
<path d="M48.087 77.159C48.1619 78.9927 47.7216 80.8108 46.816 82.407C44.9899 82.5733 43.1538 82.2245 41.516 81.4C39.65 80.286 39.022 78.185 40.052 76.974C41.528 75.237 44.059 78.126 44.059 78.126C44.059 78.126 42.469 74.626 44.659 74C46.187 73.561 47.842 74.999 48.087 77.159Z" fill="#FFC727"/>
<path d="M64.812 52.909C64.887 54.7431 64.4467 56.5614 63.541 58.158C61.715 58.3242 59.8789 57.9753 58.241 57.151C56.374 56.037 55.747 53.936 56.776 52.725C58.252 50.987 60.783 53.877 60.783 53.877C60.783 53.877 59.194 50.377 61.383 49.75C62.911 49.312 64.566 50.75 64.812 52.909Z" fill="#FFC727"/>
<path d="M57.827 66.333C57.0384 67.4072 55.9644 68.2387 54.727 68.733C53.6153 68.0009 52.7315 66.9716 52.176 65.762C51.622 64.286 52.216 62.811 53.348 62.59C54.971 62.273 55.098 65.056 55.098 65.056C55.098 65.056 55.779 62.356 57.307 62.99C58.378 63.433 58.665 64.997 57.827 66.333Z" fill="#FFC727"/>
<path d="M50.447 45.156C50.2938 45.9421 49.9235 46.6696 49.378 47.256C48.5857 47.1422 47.8412 46.8086 47.229 46.293C47.0737 46.1792 46.9445 46.0334 46.8501 45.8655C46.7557 45.6977 46.6983 45.5116 46.6818 45.3197C46.6652 45.1279 46.6898 44.9347 46.754 44.7531C46.8182 44.5716 46.9205 44.4058 47.054 44.267C47.854 43.679 48.638 45.161 48.638 45.161C48.638 45.161 48.316 43.517 49.311 43.471C50.004 43.438 50.56 44.215 50.447 45.156Z" fill="#FFC727"/>
</svg>
